<?xml version="1.0" encoding="utf-8"?>
<!-- Generator: Adobe Illustrator 26.0.2, SVG Export Plug-In . SVG Version: 6.00 Build 0)  -->
<svg version="1.1" id="Слой_1" xmlns="http://www.w3.org/2000/svg" xmlns:xlink="http://www.w3.org/1999/xlink" x="0px" y="0px"
	 viewBox="0 0 210 172" style="enable-background:new 0 0 210 172;" xml:space="preserve">
<style type="text/css">
	.st0{fill:#FFFFFF;}
</style>
<g>
	<rect x="0.5" y="0.5" width="209" height="171"/>
	<path d="M209,1v170H1V1H209 M210,0H0v172h210V0L210,0z"/>
</g>
<circle class="st0" cx="60.77" cy="62.93" r="10.65"/>
<circle class="st0" cx="85.49" cy="80.62" r="10.65"/>
<circle class="st0" cx="106.79" cy="42.33" r="10.65"/>
<circle class="st0" cx="153" cy="71.53" r="10.65"/>
<circle class="st0" cx="128.1" cy="100.2" r="10.65"/>
<rect x="102.44" y="51.19" class="st0" width="8.99" height="117.95"/>
<rect x="80.99" y="90.05" class="st0" width="8.99" height="79.09"/>
<rect x="123.6" y="109.04" class="st0" width="8.99" height="60.1"/>
<rect x="148.51" y="77.04" class="st0" width="8.99" height="60.1"/>
<rect x="140.55" y="121.12" transform="matrix(6.123234e-17 -1 1 6.123234e-17 11.4718 278.6225)" class="st0" width="8.99" height="24.91"/>
<rect x="64.04" y="108.13" transform="matrix(6.123234e-17 -1 1 6.123234e-17 -52.0507 189.12)" class="st0" width="8.99" height="24.91"/>
<rect x="56.08" y="61.97" class="st0" width="8.99" height="60.1"/>
<path class="st0" d="M130.57,158.14v11h35.54c0,0,21.44-0.04,21-28.19s2.37-30.69,2.37-30.69s0.85-11.96,19.52-12.12V73.69
	c0,0-21.89-1.69-21.89-21.29l0.22-29.6c0,0-1.83-25.72-35-21.39v11.72c0,0,15.89-2.22,20.61,11.78l0.22,26.28
	c0,0,0.46,29.31,24.31,33.17h0.63v2.81c0,0-18,0.53-22.89,21.53c0,0-3.44,18.11-2.56,36.78c0,0-2.96,12.3-15.19,11.7l-26.91,0.15
	V158.14z"/>
<path class="st0" d="M81.96,158.14v11H46.42c0,0-21.44-0.04-21-28.19s-2.37-30.69-2.37-30.69S22.19,98.31,3.53,98.14V73.69
	c0,0,21.89-1.69,21.89-21.29l-0.22-29.6c0,0,1.83-25.72,35-21.39v11.72c0,0-15.89-2.22-20.61,11.78l-0.22,26.28
	c0,0-0.46,29.31-24.31,33.17h-0.63v2.81c0,0,18,0.53,22.89,21.53c0,0,3.44,18.11,2.56,36.78c0,0,2.96,12.3,15.19,11.7l26.91,0.15
	V158.14z"/>
</svg>
