<?xml version="1.0" encoding="utf-8"?>
<!-- Generator: Adobe Illustrator 26.0.1, SVG Export Plug-In . SVG Version: 6.00 Build 0)  -->
<svg version="1.1" id="Слой_1" xmlns="http://www.w3.org/2000/svg" xmlns:xlink="http://www.w3.org/1999/xlink" x="0px" y="0px"
	 viewBox="0 0 1000 1000" style="enable-background:new 0 0 1000 1000;" xml:space="preserve">
<style type="text/css">
	.st0{fill:#F9F9F9;}
	.st1{fill:#FFFFFF;}
</style>
<g id="Слой_1_00000108268366694843634830000008302497470006848950_">
	<g>
		<rect width="1000" height="1000"/>
	</g>
	<g>
		<rect width="1000" height="1000"/>
	</g>
</g>
<g id="Слой_2_00000046326746677095694810000012091446106456782777_">
	<g>
		<path class="st0" d="M315,107v58.1h-36.3c-5.1,0-15.5,0.8-26.7,6.9c-11.9,6.5-18.3,15.6-21,20c-3.6,5.6-6.8,14.3-10,24
			c-3.5,10.6-4.7,20-5,27v131c-0.2,10.5-1.7,24.9-7,41c-7.1,21.9-18.2,37.6-26,47c-15.7,14.7-33.9,29.7-55,44
			c-5.7,3.9-11.4,7.5-17,11v4l-32,0v-66.4c3.1,0,6.5-0.2,10-0.6c12.3-1.5,22.4-5.3,30-9c7.5-5.3,18-13.9,28-27c2.2-2.9,5.2-6.9,8-12
			c3.9-7.1,10.2-21.7,9-44V224c0-12.8,1.8-32.5,12-53c2.5-5.1,8.1-15.3,18-26c13.1-14.2,26.3-21.4,33-25c0,0,24.4-13,44-13
			c0,0,0.3,0,1,0c4,0,8,0,12,0C294.3,107,304.7,107,315,107z"/>
	</g>
	<g>
		<path class="st1" d="M315,895v-58.1h-36.3c-5.1,0-15.5-0.8-26.7-6.9c-11.9-6.5-18.3-15.7-21-20c-3.6-5.6-6.8-14.3-10-24
			c-3.5-10.6-4.7-20-5-27V628c-0.2-10.5-1.7-24.9-7-41c-7.1-21.9-18.2-37.6-26-47c-15.7-14.7-33.9-29.7-55-44
			c-5.7-3.9-11.4-7.5-17-11v-4l-32,0v66.3c3.1,0,6.5,0.2,10,0.7c12.3,1.5,22.4,5.3,30,9c7.5,5.3,18,13.9,28,27c2.2,2.9,5.2,6.9,8,12
			c3.9,7.1,10.2,21.7,9,44v138c0,12.8,1.8,32.5,12,53c2.5,5.1,8.1,15.3,18,26c13.1,14.2,26.3,21.4,33,25c0,0,24.4,13,44,13
			c0,0,0.3,0,1,0c4,0,8,0,12,0C294.3,895,304.7,895,315,895z"/>
	</g>
	<polyline class="st1" points="315,836.9 410,836.9 410,675 302.8,675 303,422 335.4,422 336,641 408,641 408,510 441,510 441,895 
		315,895 	"/>
	<g>
		<path class="st1" d="M714,107v58.1h36.3c5.1,0,15.5,0.8,26.7,6.9c11.9,6.5,18.3,15.6,21,20c3.6,5.6,6.8,14.3,10,24
			c3.5,10.6,4.7,20,5,27v131c0.2,10.5,1.7,24.9,7,41c7.2,21.9,18.2,37.6,26,47c15.7,14.7,33.9,29.7,55,44c5.7,3.9,11.4,7.5,17,11v4
			l32,0v-66.4c-3.1,0-6.5-0.2-10-0.6c-12.3-1.5-22.4-5.3-30-9c-7.5-5.3-18-13.9-28-27c-2.2-2.9-5.2-6.9-8-12
			c-3.9-7.1-10.2-21.7-9-44V224c0-12.8-1.8-32.5-12-53c-2.5-5.1-8.1-15.3-18-26c-13.1-14.2-26.3-21.4-33-25c0,0-24.4-13-44-13
			c0,0-0.3,0-1,0c-4,0-8,0-12,0C734.7,107,724.3,107,714,107z"/>
	</g>
	<g>
		<path class="st1" d="M714,895v-58.1h36.3c5.1,0,15.5-0.8,26.7-6.9c11.9-6.5,18.3-15.7,21-20c3.6-5.6,6.8-14.3,10-24
			c3.5-10.6,4.7-20,5-27V628c0.2-10.5,1.7-24.9,7-41c7.2-21.9,18.2-37.6,26-47c15.7-14.7,33.9-29.7,55-44c5.7-3.9,11.4-7.5,17-11v-4
			l32,0v66.3c-3.1,0-6.5,0.2-10,0.7c-12.3,1.5-22.4,5.3-30,9c-7.5,5.3-18,13.9-28,27c-2.2,2.9-5.2,6.9-8,12c-3.9,7.1-10.2,21.7-9,44
			v138c0,12.8-1.8,32.5-12,53c-2.5,5.1-8.1,15.3-18,26c-13.1,14.2-26.3,21.4-33,25c0,0-24.4,13-44,13c0,0-0.3,0-1,0c-4,0-8,0-12,0
			C734.7,895,724.3,895,714,895z"/>
	</g>
	<path class="st1" d="M441,896"/>
	<polyline class="st1" points="714,836.9 624,836.9 624,736 733.3,736 733,464 701.4,464 701,705 624,704.6 624,605 592,605 
		592,895 714,895 	"/>
	<polygon class="st1" points="500,896 539.4,896 539,324 500,324 	"/>
	<circle class="st1" cx="320" cy="393" r="39"/>
	<circle class="st1" cx="425" cy="487" r="39"/>
	<circle class="st1" cx="520" cy="303" r="39"/>
	<circle class="st1" cx="609" cy="581" r="39"/>
	<circle class="st1" cx="717" cy="440" r="39"/>
</g>
</svg>
