<?xml version="1.0" encoding="utf-8"?>
<!-- Generator: Adobe Illustrator 26.0.2, SVG Export Plug-In . SVG Version: 6.00 Build 0)  -->
<svg version="1.1" id="Слой_1" xmlns="http://www.w3.org/2000/svg" xmlns:xlink="http://www.w3.org/1999/xlink" x="0px" y="0px"
	 viewBox="0 0 300 300" style="enable-background:new 0 0 300 300;" xml:space="preserve">
<style type="text/css">
	.st0{fill:none;}
	.st1{fill:#FFFFFF;}
	.st2{fill:#FFFFFF;stroke:#FFFFFF;stroke-width:6;stroke-miterlimit:10;}
</style>
<rect x="54.22" y="43.54" width="52.53" height="239.41"/>
<rect x="161.78" y="-76.67" class="st0" width="2.67" height="0"/>
<rect x="388.44" y="-2" class="st0" width="2.67" height="0"/>
<circle cx="163.8" cy="138.76" r="105.56"/>
<rect x="85.33" y="81.26" class="st0" width="129.78" height="140.74"/>
<g>
	<path class="st1" d="M168.27,50.58c26.27,0,47.12,7.72,62.57,23.16C246.28,89.17,254,110.87,254,138.85
		c0,26.98-7.74,48.5-23.23,64.55c-15.48,16.05-36.36,24.07-62.62,24.07c-6.98,0-13.25-0.38-18.82-1.14
		c-5.57-0.76-10.9-1.83-15.99-3.2c-4-1.14-8.35-2.71-13.05-4.69c-4.7-1.98-8.51-3.7-11.41-5.15V172.7h4.47
		c2.12,1.83,4.78,4.02,8,6.57c3.22,2.55,6.86,5.05,10.94,7.49c4.08,2.44,8.57,4.52,13.47,6.23c4.9,1.72,10.02,2.57,15.35,2.57
		c6.35,0,12.17-0.97,17.46-2.92c5.29-1.94,10.33-5.32,15.11-10.12c4.39-4.35,7.98-10.22,10.76-17.61c2.78-7.4,4.17-16.12,4.17-26.19
		c0-10.6-1.45-19.5-4.35-26.7c-2.9-7.2-6.7-13.02-11.41-17.44c-4.55-4.27-9.62-7.36-15.23-9.26c-5.6-1.91-11.19-2.86-16.76-2.86
		c-5.8,0-11.33,0.93-16.58,2.8c-5.25,1.87-9.68,3.94-13.29,6.23c-3.92,2.36-7.37,4.76-10.35,7.2c-2.98,2.44-5.57,4.61-7.76,6.52h-4
		V65.21c3.22-1.45,6.94-3.11,11.17-4.97c4.23-1.87,8.58-3.45,13.05-4.75c5.49-1.6,10.62-2.82,15.41-3.66
		C153.29,51,159.88,50.58,168.27,50.58z"/>
</g>
<path class="st2" d="M200.59,76.22"/>
<g>
	<path class="st1" d="M108.81,130.56c0.6,1.08,1.23,2.13,1.92,3.12c4.73,6.69,11.96,12.02,21.67,15.98
		c4.95,1.98,9.61,3.54,13.96,4.67c4.36,1.13,8.88,2.3,13.59,3.5c7.27,1.91,12.18,4.05,14.71,6.43c2.54,2.37,3.81,5.58,3.81,9.61
		c0,2.76-0.8,5.26-2.4,7.49c-1.6,2.23-3.49,3.91-5.69,5.04c-2.69,1.42-5.26,2.37-7.71,2.87c-2.44,0.49-5.2,0.74-8.27,0.74
		c-7.9,0-15.59-1.74-23.08-5.2c-7.49-3.47-13.84-7.72-19.04-12.74h-3.1v36.11c6.52,3.26,13.9,5.84,22.14,7.75
		c8.24,1.91,16.53,2.87,24.87,2.87c16.61,0,30.46-4.58,41.56-13.75c11.09-9.17,16.64-21.15,16.64-35.95
		c0-10.98-2.35-20.11-7.05-27.4c-4.7-7.29-12.47-13.1-23.32-17.42c-4.7-1.84-9.76-3.4-15.18-4.67c-5.42-1.27-10.51-2.62-15.28-4.04
		c-3.82-1.13-7.11-2.94-9.87-5.42c-2.76-2.48-4.14-5.7-4.14-9.66c0-3.54,0.85-6.39,2.54-8.55c1.69-2.16,3.76-3.84,6.21-5.04
		c2.01-1.06,4.65-1.84,7.95-2.34c3.29-0.5,5.94-0.74,7.95-0.74c7.96,0,16.17,1.81,24.63,5.42c8.46,3.61,16.2,8.78,23.22,15.51h3.2
		v-37.6c-6.96-3.47-14.49-6.37-22.61-8.71c-8.12-2.34-17.54-3.5-28.25-3.5c-18.62,0-33.39,4.78-44.33,14.34
		c-4.8,4.19-8.54,8.97-11.23,14.35V130.56z"/>
</g>
</svg>
